<?xml version="1.0" encoding="utf-8" standalone="no"?>
<!DOCTYPE svg PUBLIC "-//W3C//DTD SVG 1.1//EN"
  "http://www.w3.org/Graphics/SVG/1.1/DTD/svg11.dtd">
<svg xmlns:xlink="http://www.w3.org/1999/xlink" width="864pt" height="432pt" viewBox="0 0 864 432" xmlns="http://www.w3.org/2000/svg" version="1.1">
 <metadata>
  <rdf:RDF xmlns:dc="http://purl.org/dc/elements/1.1/" xmlns:cc="http://creativecommons.org/ns#" xmlns:rdf="http://www.w3.org/1999/02/22-rdf-syntax-ns#">
   <cc:Work>
    <dc:type rdf:resource="http://purl.org/dc/dcmitype/StillImage"/>
    <dc:date>2025-11-13T18:32:58.183083</dc:date>
    <dc:format>image/svg+xml</dc:format>
    <dc:creator>
     <cc:Agent>
      <dc:title>Matplotlib v3.10.6, https://matplotlib.org/</dc:title>
     </cc:Agent>
    </dc:creator>
   </cc:Work>
  </rdf:RDF>
 </metadata>
 <defs>
  <style type="text/css">*{stroke-linejoin: round; stroke-linecap: butt}</style>
 </defs>
 <g id="figure_1">
  <g id="patch_1">
   <path d="M 0 432 
L 864 432 
L 864 0 
L 0 0 
z
" style="fill: #ffffff"/>
  </g>
  <g id="axes_1">
   <g id="patch_2">
    <path d="M 108 384.48 
L 777.6 384.48 
L 777.6 51.84 
L 108 51.84 
z
" style="fill: #ffffff"/>
   </g>
   <g id="matplotlib.axis_1">
    <g id="xtick_1">
     <g id="line2d_1">
      <defs>
       <path id="m91e5d941ad" d="M 0 0 
L 0 3.5 
" style="stroke: #000000; stroke-width: 0.8"/>
      </defs>
      <g>
       <use xlink:href="#m91e5d941ad" x="138.436364" y="384.48" style="stroke: #000000; stroke-width: 0.8"/>
      </g>
     </g>
     <g id="text_1">
      <!-- 0 -->
      <g transform="translate(135.255114 399.078438) scale(0.1 -0.1)">
       <defs>
        <path id="DejaVuSans-30" d="M 2034 4250 
Q 1547 4250 1301 3770 
Q 1056 3291 1056 2328 
Q 1056 1369 1301 889 
Q 1547 409 2034 409 
Q 2525 409 2770 889 
Q 3016 1369 3016 2328 
Q 3016 3291 2770 3770 
Q 2525 4250 2034 4250 
z
M 2034 4750 
Q 2819 4750 3233 4129 
Q 3647 3509 3647 2328 
Q 3647 1150 3233 529 
Q 2819 -91 2034 -91 
Q 1250 -91 836 529 
Q 422 1150 422 2328 
Q 422 3509 836 4129 
Q 1250 4750 2034 4750 
z
" transform="scale(0.015625)"/>
       </defs>
       <use xlink:href="#DejaVuSans-30"/>
      </g>
     </g>
    </g>
    <g id="xtick_2">
     <g id="line2d_2">
      <g>
       <use xlink:href="#m91e5d941ad" x="262.666419" y="384.48" style="stroke: #000000; stroke-width: 0.8"/>
      </g>
     </g>
     <g id="text_2">
      <!-- 200 -->
      <g transform="translate(253.122669 399.078438) scale(0.1 -0.1)">
       <defs>
        <path id="DejaVuSans-32" d="M 1228 531 
L 3431 531 
L 3431 0 
L 469 0 
L 469 531 
Q 828 903 1448 1529 
Q 2069 2156 2228 2338 
Q 2531 2678 2651 2914 
Q 2772 3150 2772 3378 
Q 2772 3750 2511 3984 
Q 2250 4219 1831 4219 
Q 1534 4219 1204 4116 
Q 875 4013 500 3803 
L 500 4441 
Q 881 4594 1212 4672 
Q 1544 4750 1819 4750 
Q 2544 4750 2975 4387 
Q 3406 4025 3406 3419 
Q 3406 3131 3298 2873 
Q 3191 2616 2906 2266 
Q 2828 2175 2409 1742 
Q 1991 1309 1228 531 
z
" transform="scale(0.015625)"/>
       </defs>
       <use xlink:href="#DejaVuSans-32"/>
       <use xlink:href="#DejaVuSans-30" transform="translate(63.623047 0)"/>
       <use xlink:href="#DejaVuSans-30" transform="translate(127.246094 0)"/>
      </g>
     </g>
    </g>
    <g id="xtick_3">
     <g id="line2d_3">
      <g>
       <use xlink:href="#m91e5d941ad" x="386.896475" y="384.48" style="stroke: #000000; stroke-width: 0.8"/>
      </g>
     </g>
     <g id="text_3">
      <!-- 400 -->
      <g transform="translate(377.352725 399.078438) scale(0.1 -0.1)">
       <defs>
        <path id="DejaVuSans-34" d="M 2419 4116 
L 825 1625 
L 2419 1625 
L 2419 4116 
z
M 2253 4666 
L 3047 4666 
L 3047 1625 
L 3713 1625 
L 3713 1100 
L 3047 1100 
L 3047 0 
L 2419 0 
L 2419 1100 
L 313 1100 
L 313 1709 
L 2253 4666 
z
" transform="scale(0.015625)"/>
       </defs>
       <use xlink:href="#DejaVuSans-34"/>
       <use xlink:href="#DejaVuSans-30" transform="translate(63.623047 0)"/>
       <use xlink:href="#DejaVuSans-30" transform="translate(127.246094 0)"/>
      </g>
     </g>
    </g>
    <g id="xtick_4">
     <g id="line2d_4">
      <g>
       <use xlink:href="#m91e5d941ad" x="511.126531" y="384.48" style="stroke: #000000; stroke-width: 0.8"/>
      </g>
     </g>
     <g id="text_4">
      <!-- 600 -->
      <g transform="translate(501.582781 399.078438) scale(0.1 -0.1)">
       <defs>
        <path id="DejaVuSans-36" d="M 2113 2584 
Q 1688 2584 1439 2293 
Q 1191 2003 1191 1497 
Q 1191 994 1439 701 
Q 1688 409 2113 409 
Q 2538 409 2786 701 
Q 3034 994 3034 1497 
Q 3034 2003 2786 2293 
Q 2538 2584 2113 2584 
z
M 3366 4563 
L 3366 3988 
Q 3128 4100 2886 4159 
Q 2644 4219 2406 4219 
Q 1781 4219 1451 3797 
Q 1122 3375 1075 2522 
Q 1259 2794 1537 2939 
Q 1816 3084 2150 3084 
Q 2853 3084 3261 2657 
Q 3669 2231 3669 1497 
Q 3669 778 3244 343 
Q 2819 -91 2113 -91 
Q 1303 -91 875 529 
Q 447 1150 447 2328 
Q 447 3434 972 4092 
Q 1497 4750 2381 4750 
Q 2619 4750 2861 4703 
Q 3103 4656 3366 4563 
z
" transform="scale(0.015625)"/>
       </defs>
       <use xlink:href="#DejaVuSans-36"/>
       <use xlink:href="#DejaVuSans-30" transform="translate(63.623047 0)"/>
       <use xlink:href="#DejaVuSans-30" transform="translate(127.246094 0)"/>
      </g>
     </g>
    </g>
    <g id="xtick_5">
     <g id="line2d_5">
      <g>
       <use xlink:href="#m91e5d941ad" x="635.356586" y="384.48" style="stroke: #000000; stroke-width: 0.8"/>
      </g>
     </g>
     <g id="text_5">
      <!-- 800 -->
      <g transform="translate(625.812836 399.078438) scale(0.1 -0.1)">
       <defs>
        <path id="DejaVuSans-38" d="M 2034 2216 
Q 1584 2216 1326 1975 
Q 1069 1734 1069 1313 
Q 1069 891 1326 650 
Q 1584 409 2034 409 
Q 2484 409 2743 651 
Q 3003 894 3003 1313 
Q 3003 1734 2745 1975 
Q 2488 2216 2034 2216 
z
M 1403 2484 
Q 997 2584 770 2862 
Q 544 3141 544 3541 
Q 544 4100 942 4425 
Q 1341 4750 2034 4750 
Q 2731 4750 3128 4425 
Q 3525 4100 3525 3541 
Q 3525 3141 3298 2862 
Q 3072 2584 2669 2484 
Q 3125 2378 3379 2068 
Q 3634 1759 3634 1313 
Q 3634 634 3220 271 
Q 2806 -91 2034 -91 
Q 1263 -91 848 271 
Q 434 634 434 1313 
Q 434 1759 690 2068 
Q 947 2378 1403 2484 
z
M 1172 3481 
Q 1172 3119 1398 2916 
Q 1625 2713 2034 2713 
Q 2441 2713 2670 2916 
Q 2900 3119 2900 3481 
Q 2900 3844 2670 4047 
Q 2441 4250 2034 4250 
Q 1625 4250 1398 4047 
Q 1172 3844 1172 3481 
z
" transform="scale(0.015625)"/>
       </defs>
       <use xlink:href="#DejaVuSans-38"/>
       <use xlink:href="#DejaVuSans-30" transform="translate(63.623047 0)"/>
       <use xlink:href="#DejaVuSans-30" transform="translate(127.246094 0)"/>
      </g>
     </g>
    </g>
    <g id="xtick_6">
     <g id="line2d_6">
      <g>
       <use xlink:href="#m91e5d941ad" x="759.586642" y="384.48" style="stroke: #000000; stroke-width: 0.8"/>
      </g>
     </g>
     <g id="text_6">
      <!-- 1000 -->
      <g transform="translate(746.861642 399.078438) scale(0.1 -0.1)">
       <defs>
        <path id="DejaVuSans-31" d="M 794 531 
L 1825 531 
L 1825 4091 
L 703 3866 
L 703 4441 
L 1819 4666 
L 2450 4666 
L 2450 531 
L 3481 531 
L 3481 0 
L 794 0 
L 794 531 
z
" transform="scale(0.015625)"/>
       </defs>
       <use xlink:href="#DejaVuSans-31"/>
       <use xlink:href="#DejaVuSans-30" transform="translate(63.623047 0)"/>
       <use xlink:href="#DejaVuSans-30" transform="translate(127.246094 0)"/>
       <use xlink:href="#DejaVuSans-30" transform="translate(190.869141 0)"/>
      </g>
     </g>
    </g>
    <g id="text_7">
     <!-- Time (ms) -->
     <g transform="translate(417.600781 412.756563) scale(0.1 -0.1)">
      <defs>
       <path id="DejaVuSans-54" d="M -19 4666 
L 3928 4666 
L 3928 4134 
L 2272 4134 
L 2272 0 
L 1638 0 
L 1638 4134 
L -19 4134 
L -19 4666 
z
" transform="scale(0.015625)"/>
       <path id="DejaVuSans-69" d="M 603 3500 
L 1178 3500 
L 1178 0 
L 603 0 
L 603 3500 
z
M 603 4863 
L 1178 4863 
L 1178 4134 
L 603 4134 
L 603 4863 
z
" transform="scale(0.015625)"/>
       <path id="DejaVuSans-6d" d="M 3328 2828 
Q 3544 3216 3844 3400 
Q 4144 3584 4550 3584 
Q 5097 3584 5394 3201 
Q 5691 2819 5691 2113 
L 5691 0 
L 5113 0 
L 5113 2094 
Q 5113 2597 4934 2840 
Q 4756 3084 4391 3084 
Q 3944 3084 3684 2787 
Q 3425 2491 3425 1978 
L 3425 0 
L 2847 0 
L 2847 2094 
Q 2847 2600 2669 2842 
Q 2491 3084 2119 3084 
Q 1678 3084 1418 2786 
Q 1159 2488 1159 1978 
L 1159 0 
L 581 0 
L 581 3500 
L 1159 3500 
L 1159 2956 
Q 1356 3278 1631 3431 
Q 1906 3584 2284 3584 
Q 2666 3584 2933 3390 
Q 3200 3197 3328 2828 
z
" transform="scale(0.015625)"/>
       <path id="DejaVuSans-65" d="M 3597 1894 
L 3597 1613 
L 953 1613 
Q 991 1019 1311 708 
Q 1631 397 2203 397 
Q 2534 397 2845 478 
Q 3156 559 3463 722 
L 3463 178 
Q 3153 47 2828 -22 
Q 2503 -91 2169 -91 
Q 1331 -91 842 396 
Q 353 884 353 1716 
Q 353 2575 817 3079 
Q 1281 3584 2069 3584 
Q 2775 3584 3186 3129 
Q 3597 2675 3597 1894 
z
M 3022 2063 
Q 3016 2534 2758 2815 
Q 2500 3097 2075 3097 
Q 1594 3097 1305 2825 
Q 1016 2553 972 2059 
L 3022 2063 
z
" transform="scale(0.015625)"/>
       <path id="DejaVuSans-20" transform="scale(0.015625)"/>
       <path id="DejaVuSans-28" d="M 1984 4856 
Q 1566 4138 1362 3434 
Q 1159 2731 1159 2009 
Q 1159 1288 1364 580 
Q 1569 -128 1984 -844 
L 1484 -844 
Q 1016 -109 783 600 
Q 550 1309 550 2009 
Q 550 2706 781 3412 
Q 1013 4119 1484 4856 
L 1984 4856 
z
" transform="scale(0.015625)"/>
       <path id="DejaVuSans-73" d="M 2834 3397 
L 2834 2853 
Q 2591 2978 2328 3040 
Q 2066 3103 1784 3103 
Q 1356 3103 1142 2972 
Q 928 2841 928 2578 
Q 928 2378 1081 2264 
Q 1234 2150 1697 2047 
L 1894 2003 
Q 2506 1872 2764 1633 
Q 3022 1394 3022 966 
Q 3022 478 2636 193 
Q 2250 -91 1575 -91 
Q 1294 -91 989 -36 
Q 684 19 347 128 
L 347 722 
Q 666 556 975 473 
Q 1284 391 1588 391 
Q 1994 391 2212 530 
Q 2431 669 2431 922 
Q 2431 1156 2273 1281 
Q 2116 1406 1581 1522 
L 1381 1569 
Q 847 1681 609 1914 
Q 372 2147 372 2553 
Q 372 3047 722 3315 
Q 1072 3584 1716 3584 
Q 2034 3584 2315 3537 
Q 2597 3491 2834 3397 
z
" transform="scale(0.015625)"/>
       <path id="DejaVuSans-29" d="M 513 4856 
L 1013 4856 
Q 1481 4119 1714 3412 
Q 1947 2706 1947 2009 
Q 1947 1309 1714 600 
Q 1481 -109 1013 -844 
L 513 -844 
Q 928 -128 1133 580 
Q 1338 1288 1338 2009 
Q 1338 2731 1133 3434 
Q 928 4138 513 4856 
z
" transform="scale(0.015625)"/>
      </defs>
      <use xlink:href="#DejaVuSans-54"/>
      <use xlink:href="#DejaVuSans-69" transform="translate(57.958984 0)"/>
      <use xlink:href="#DejaVuSans-6d" transform="translate(85.742188 0)"/>
      <use xlink:href="#DejaVuSans-65" transform="translate(183.154297 0)"/>
      <use xlink:href="#DejaVuSans-20" transform="translate(244.677734 0)"/>
      <use xlink:href="#DejaVuSans-28" transform="translate(276.464844 0)"/>
      <use xlink:href="#DejaVuSans-6d" transform="translate(315.478516 0)"/>
      <use xlink:href="#DejaVuSans-73" transform="translate(412.890625 0)"/>
      <use xlink:href="#DejaVuSans-29" transform="translate(464.990234 0)"/>
     </g>
    </g>
   </g>
   <g id="matplotlib.axis_2">
    <g id="ytick_1">
     <g id="line2d_7">
      <defs>
       <path id="m153faae812" d="M 0 0 
L -3.5 0 
" style="stroke: #000000; stroke-width: 0.8"/>
      </defs>
      <g>
       <use xlink:href="#m153faae812" x="108" y="369.36" style="stroke: #000000; stroke-width: 0.8"/>
      </g>
     </g>
     <g id="text_8">
      <!-- 0.00 -->
      <g transform="translate(78.734375 373.159219) scale(0.1 -0.1)">
       <defs>
        <path id="DejaVuSans-2e" d="M 684 794 
L 1344 794 
L 1344 0 
L 684 0 
L 684 794 
z
" transform="scale(0.015625)"/>
       </defs>
       <use xlink:href="#DejaVuSans-30"/>
       <use xlink:href="#DejaVuSans-2e" transform="translate(63.623047 0)"/>
       <use xlink:href="#DejaVuSans-30" transform="translate(95.410156 0)"/>
       <use xlink:href="#DejaVuSans-30" transform="translate(159.033203 0)"/>
      </g>
     </g>
    </g>
    <g id="ytick_2">
     <g id="line2d_8">
      <g>
       <use xlink:href="#m153faae812" x="108" y="324.36" style="stroke: #000000; stroke-width: 0.8"/>
      </g>
     </g>
     <g id="text_9">
      <!-- 0.25 -->
      <g transform="translate(78.734375 328.159219) scale(0.1 -0.1)">
       <defs>
        <path id="DejaVuSans-35" d="M 691 4666 
L 3169 4666 
L 3169 4134 
L 1269 4134 
L 1269 2991 
Q 1406 3038 1543 3061 
Q 1681 3084 1819 3084 
Q 2600 3084 3056 2656 
Q 3513 2228 3513 1497 
Q 3513 744 3044 326 
Q 2575 -91 1722 -91 
Q 1428 -91 1123 -41 
Q 819 9 494 109 
L 494 744 
Q 775 591 1075 516 
Q 1375 441 1709 441 
Q 2250 441 2565 725 
Q 2881 1009 2881 1497 
Q 2881 1984 2565 2268 
Q 2250 2553 1709 2553 
Q 1456 2553 1204 2497 
Q 953 2441 691 2322 
L 691 4666 
z
" transform="scale(0.015625)"/>
       </defs>
       <use xlink:href="#DejaVuSans-30"/>
       <use xlink:href="#DejaVuSans-2e" transform="translate(63.623047 0)"/>
       <use xlink:href="#DejaVuSans-32" transform="translate(95.410156 0)"/>
       <use xlink:href="#DejaVuSans-35" transform="translate(159.033203 0)"/>
      </g>
     </g>
    </g>
    <g id="ytick_3">
     <g id="line2d_9">
      <g>
       <use xlink:href="#m153faae812" x="108" y="279.36" style="stroke: #000000; stroke-width: 0.8"/>
      </g>
     </g>
     <g id="text_10">
      <!-- 0.50 -->
      <g transform="translate(78.734375 283.159219) scale(0.1 -0.1)">
       <use xlink:href="#DejaVuSans-30"/>
       <use xlink:href="#DejaVuSans-2e" transform="translate(63.623047 0)"/>
       <use xlink:href="#DejaVuSans-35" transform="translate(95.410156 0)"/>
       <use xlink:href="#DejaVuSans-30" transform="translate(159.033203 0)"/>
      </g>
     </g>
    </g>
    <g id="ytick_4">
     <g id="line2d_10">
      <g>
       <use xlink:href="#m153faae812" x="108" y="234.36" style="stroke: #000000; stroke-width: 0.8"/>
      </g>
     </g>
     <g id="text_11">
      <!-- 0.75 -->
      <g transform="translate(78.734375 238.159219) scale(0.1 -0.1)">
       <defs>
        <path id="DejaVuSans-37" d="M 525 4666 
L 3525 4666 
L 3525 4397 
L 1831 0 
L 1172 0 
L 2766 4134 
L 525 4134 
L 525 4666 
z
" transform="scale(0.015625)"/>
       </defs>
       <use xlink:href="#DejaVuSans-30"/>
       <use xlink:href="#DejaVuSans-2e" transform="translate(63.623047 0)"/>
       <use xlink:href="#DejaVuSans-37" transform="translate(95.410156 0)"/>
       <use xlink:href="#DejaVuSans-35" transform="translate(159.033203 0)"/>
      </g>
     </g>
    </g>
    <g id="ytick_5">
     <g id="line2d_11">
      <g>
       <use xlink:href="#m153faae812" x="108" y="189.36" style="stroke: #000000; stroke-width: 0.8"/>
      </g>
     </g>
     <g id="text_12">
      <!-- 1.00 -->
      <g transform="translate(78.734375 193.159219) scale(0.1 -0.1)">
       <use xlink:href="#DejaVuSans-31"/>
       <use xlink:href="#DejaVuSans-2e" transform="translate(63.623047 0)"/>
       <use xlink:href="#DejaVuSans-30" transform="translate(95.410156 0)"/>
       <use xlink:href="#DejaVuSans-30" transform="translate(159.033203 0)"/>
      </g>
     </g>
    </g>
    <g id="ytick_6">
     <g id="line2d_12">
      <g>
       <use xlink:href="#m153faae812" x="108" y="144.36" style="stroke: #000000; stroke-width: 0.8"/>
      </g>
     </g>
     <g id="text_13">
      <!-- 1.25 -->
      <g transform="translate(78.734375 148.159219) scale(0.1 -0.1)">
       <use xlink:href="#DejaVuSans-31"/>
       <use xlink:href="#DejaVuSans-2e" transform="translate(63.623047 0)"/>
       <use xlink:href="#DejaVuSans-32" transform="translate(95.410156 0)"/>
       <use xlink:href="#DejaVuSans-35" transform="translate(159.033203 0)"/>
      </g>
     </g>
    </g>
    <g id="ytick_7">
     <g id="line2d_13">
      <g>
       <use xlink:href="#m153faae812" x="108" y="99.36" style="stroke: #000000; stroke-width: 0.8"/>
      </g>
     </g>
     <g id="text_14">
      <!-- 1.50 -->
      <g transform="translate(78.734375 103.159219) scale(0.1 -0.1)">
       <use xlink:href="#DejaVuSans-31"/>
       <use xlink:href="#DejaVuSans-2e" transform="translate(63.623047 0)"/>
       <use xlink:href="#DejaVuSans-35" transform="translate(95.410156 0)"/>
       <use xlink:href="#DejaVuSans-30" transform="translate(159.033203 0)"/>
      </g>
     </g>
    </g>
    <g id="ytick_8">
     <g id="line2d_14">
      <g>
       <use xlink:href="#m153faae812" x="108" y="54.36" style="stroke: #000000; stroke-width: 0.8"/>
      </g>
     </g>
     <g id="text_15">
      <!-- 1.75 -->
      <g transform="translate(78.734375 58.159219) scale(0.1 -0.1)">
       <use xlink:href="#DejaVuSans-31"/>
       <use xlink:href="#DejaVuSans-2e" transform="translate(63.623047 0)"/>
       <use xlink:href="#DejaVuSans-37" transform="translate(95.410156 0)"/>
       <use xlink:href="#DejaVuSans-35" transform="translate(159.033203 0)"/>
      </g>
     </g>
    </g>
    <g id="text_16">
     <!-- Mean Firing Rate (firings/ms) per Neuron -->
     <g transform="translate(72.654687 319.946719) rotate(-90) scale(0.1 -0.1)">
      <defs>
       <path id="DejaVuSans-4d" d="M 628 4666 
L 1569 4666 
L 2759 1491 
L 3956 4666 
L 4897 4666 
L 4897 0 
L 4281 0 
L 4281 4097 
L 3078 897 
L 2444 897 
L 1241 4097 
L 1241 0 
L 628 0 
L 628 4666 
z
" transform="scale(0.015625)"/>
       <path id="DejaVuSans-61" d="M 2194 1759 
Q 1497 1759 1228 1600 
Q 959 1441 959 1056 
Q 959 750 1161 570 
Q 1363 391 1709 391 
Q 2188 391 2477 730 
Q 2766 1069 2766 1631 
L 2766 1759 
L 2194 1759 
z
M 3341 1997 
L 3341 0 
L 2766 0 
L 2766 531 
Q 2569 213 2275 61 
Q 1981 -91 1556 -91 
Q 1019 -91 701 211 
Q 384 513 384 1019 
Q 384 1609 779 1909 
Q 1175 2209 1959 2209 
L 2766 2209 
L 2766 2266 
Q 2766 2663 2505 2880 
Q 2244 3097 1772 3097 
Q 1472 3097 1187 3025 
Q 903 2953 641 2809 
L 641 3341 
Q 956 3463 1253 3523 
Q 1550 3584 1831 3584 
Q 2591 3584 2966 3190 
Q 3341 2797 3341 1997 
z
" transform="scale(0.015625)"/>
       <path id="DejaVuSans-6e" d="M 3513 2113 
L 3513 0 
L 2938 0 
L 2938 2094 
Q 2938 2591 2744 2837 
Q 2550 3084 2163 3084 
Q 1697 3084 1428 2787 
Q 1159 2491 1159 1978 
L 1159 0 
L 581 0 
L 581 3500 
L 1159 3500 
L 1159 2956 
Q 1366 3272 1645 3428 
Q 1925 3584 2291 3584 
Q 2894 3584 3203 3211 
Q 3513 2838 3513 2113 
z
" transform="scale(0.015625)"/>
       <path id="DejaVuSans-46" d="M 628 4666 
L 3309 4666 
L 3309 4134 
L 1259 4134 
L 1259 2759 
L 3109 2759 
L 3109 2228 
L 1259 2228 
L 1259 0 
L 628 0 
L 628 4666 
z
" transform="scale(0.015625)"/>
       <path id="DejaVuSans-72" d="M 2631 2963 
Q 2534 3019 2420 3045 
Q 2306 3072 2169 3072 
Q 1681 3072 1420 2755 
Q 1159 2438 1159 1844 
L 1159 0 
L 581 0 
L 581 3500 
L 1159 3500 
L 1159 2956 
Q 1341 3275 1631 3429 
Q 1922 3584 2338 3584 
Q 2397 3584 2469 3576 
Q 2541 3569 2628 3553 
L 2631 2963 
z
" transform="scale(0.015625)"/>
       <path id="DejaVuSans-67" d="M 2906 1791 
Q 2906 2416 2648 2759 
Q 2391 3103 1925 3103 
Q 1463 3103 1205 2759 
Q 947 2416 947 1791 
Q 947 1169 1205 825 
Q 1463 481 1925 481 
Q 2391 481 2648 825 
Q 2906 1169 2906 1791 
z
M 3481 434 
Q 3481 -459 3084 -895 
Q 2688 -1331 1869 -1331 
Q 1566 -1331 1297 -1286 
Q 1028 -1241 775 -1147 
L 775 -588 
Q 1028 -725 1275 -790 
Q 1522 -856 1778 -856 
Q 2344 -856 2625 -561 
Q 2906 -266 2906 331 
L 2906 616 
Q 2728 306 2450 153 
Q 2172 0 1784 0 
Q 1141 0 747 490 
Q 353 981 353 1791 
Q 353 2603 747 3093 
Q 1141 3584 1784 3584 
Q 2172 3584 2450 3431 
Q 2728 3278 2906 2969 
L 2906 3500 
L 3481 3500 
L 3481 434 
z
" transform="scale(0.015625)"/>
       <path id="DejaVuSans-52" d="M 2841 2188 
Q 3044 2119 3236 1894 
Q 3428 1669 3622 1275 
L 4263 0 
L 3584 0 
L 2988 1197 
Q 2756 1666 2539 1819 
Q 2322 1972 1947 1972 
L 1259 1972 
L 1259 0 
L 628 0 
L 628 4666 
L 2053 4666 
Q 2853 4666 3247 4331 
Q 3641 3997 3641 3322 
Q 3641 2881 3436 2590 
Q 3231 2300 2841 2188 
z
M 1259 4147 
L 1259 2491 
L 2053 2491 
Q 2509 2491 2742 2702 
Q 2975 2913 2975 3322 
Q 2975 3731 2742 3939 
Q 2509 4147 2053 4147 
L 1259 4147 
z
" transform="scale(0.015625)"/>
       <path id="DejaVuSans-74" d="M 1172 4494 
L 1172 3500 
L 2356 3500 
L 2356 3053 
L 1172 3053 
L 1172 1153 
Q 1172 725 1289 603 
Q 1406 481 1766 481 
L 2356 481 
L 2356 0 
L 1766 0 
Q 1100 0 847 248 
Q 594 497 594 1153 
L 594 3053 
L 172 3053 
L 172 3500 
L 594 3500 
L 594 4494 
L 1172 4494 
z
" transform="scale(0.015625)"/>
       <path id="DejaVuSans-66" d="M 2375 4863 
L 2375 4384 
L 1825 4384 
Q 1516 4384 1395 4259 
Q 1275 4134 1275 3809 
L 1275 3500 
L 2222 3500 
L 2222 3053 
L 1275 3053 
L 1275 0 
L 697 0 
L 697 3053 
L 147 3053 
L 147 3500 
L 697 3500 
L 697 3744 
Q 697 4328 969 4595 
Q 1241 4863 1831 4863 
L 2375 4863 
z
" transform="scale(0.015625)"/>
       <path id="DejaVuSans-2f" d="M 1625 4666 
L 2156 4666 
L 531 -594 
L 0 -594 
L 1625 4666 
z
" transform="scale(0.015625)"/>
       <path id="DejaVuSans-70" d="M 1159 525 
L 1159 -1331 
L 581 -1331 
L 581 3500 
L 1159 3500 
L 1159 2969 
Q 1341 3281 1617 3432 
Q 1894 3584 2278 3584 
Q 2916 3584 3314 3078 
Q 3713 2572 3713 1747 
Q 3713 922 3314 415 
Q 2916 -91 2278 -91 
Q 1894 -91 1617 61 
Q 1341 213 1159 525 
z
M 3116 1747 
Q 3116 2381 2855 2742 
Q 2594 3103 2138 3103 
Q 1681 3103 1420 2742 
Q 1159 2381 1159 1747 
Q 1159 1113 1420 752 
Q 1681 391 2138 391 
Q 2594 391 2855 752 
Q 3116 1113 3116 1747 
z
" transform="scale(0.015625)"/>
       <path id="DejaVuSans-4e" d="M 628 4666 
L 1478 4666 
L 3547 763 
L 3547 4666 
L 4159 4666 
L 4159 0 
L 3309 0 
L 1241 3903 
L 1241 0 
L 628 0 
L 628 4666 
z
" transform="scale(0.015625)"/>
       <path id="DejaVuSans-75" d="M 544 1381 
L 544 3500 
L 1119 3500 
L 1119 1403 
Q 1119 906 1312 657 
Q 1506 409 1894 409 
Q 2359 409 2629 706 
Q 2900 1003 2900 1516 
L 2900 3500 
L 3475 3500 
L 3475 0 
L 2900 0 
L 2900 538 
Q 2691 219 2414 64 
Q 2138 -91 1772 -91 
Q 1169 -91 856 284 
Q 544 659 544 1381 
z
M 1991 3584 
L 1991 3584 
z
" transform="scale(0.015625)"/>
       <path id="DejaVuSans-6f" d="M 1959 3097 
Q 1497 3097 1228 2736 
Q 959 2375 959 1747 
Q 959 1119 1226 758 
Q 1494 397 1959 397 
Q 2419 397 2687 759 
Q 2956 1122 2956 1747 
Q 2956 2369 2687 2733 
Q 2419 3097 1959 3097 
z
M 1959 3584 
Q 2709 3584 3137 3096 
Q 3566 2609 3566 1747 
Q 3566 888 3137 398 
Q 2709 -91 1959 -91 
Q 1206 -91 779 398 
Q 353 888 353 1747 
Q 353 2609 779 3096 
Q 1206 3584 1959 3584 
z
" transform="scale(0.015625)"/>
      </defs>
      <use xlink:href="#DejaVuSans-4d"/>
      <use xlink:href="#DejaVuSans-65" transform="translate(86.279297 0)"/>
      <use xlink:href="#DejaVuSans-61" transform="translate(147.802734 0)"/>
      <use xlink:href="#DejaVuSans-6e" transform="translate(209.082031 0)"/>
      <use xlink:href="#DejaVuSans-20" transform="translate(272.460938 0)"/>
      <use xlink:href="#DejaVuSans-46" transform="translate(304.248047 0)"/>
      <use xlink:href="#DejaVuSans-69" transform="translate(354.517578 0)"/>
      <use xlink:href="#DejaVuSans-72" transform="translate(382.300781 0)"/>
      <use xlink:href="#DejaVuSans-69" transform="translate(423.414062 0)"/>
      <use xlink:href="#DejaVuSans-6e" transform="translate(451.197266 0)"/>
      <use xlink:href="#DejaVuSans-67" transform="translate(514.576172 0)"/>
      <use xlink:href="#DejaVuSans-20" transform="translate(578.052734 0)"/>
      <use xlink:href="#DejaVuSans-52" transform="translate(609.839844 0)"/>
      <use xlink:href="#DejaVuSans-61" transform="translate(677.072266 0)"/>
      <use xlink:href="#DejaVuSans-74" transform="translate(738.351562 0)"/>
      <use xlink:href="#DejaVuSans-65" transform="translate(777.560547 0)"/>
      <use xlink:href="#DejaVuSans-20" transform="translate(839.083984 0)"/>
      <use xlink:href="#DejaVuSans-28" transform="translate(870.871094 0)"/>
      <use xlink:href="#DejaVuSans-66" transform="translate(909.884766 0)"/>
      <use xlink:href="#DejaVuSans-69" transform="translate(945.089844 0)"/>
      <use xlink:href="#DejaVuSans-72" transform="translate(972.873047 0)"/>
      <use xlink:href="#DejaVuSans-69" transform="translate(1013.986328 0)"/>
      <use xlink:href="#DejaVuSans-6e" transform="translate(1041.769531 0)"/>
      <use xlink:href="#DejaVuSans-67" transform="translate(1105.148438 0)"/>
      <use xlink:href="#DejaVuSans-73" transform="translate(1168.625 0)"/>
      <use xlink:href="#DejaVuSans-2f" transform="translate(1220.724609 0)"/>
      <use xlink:href="#DejaVuSans-6d" transform="translate(1254.416016 0)"/>
      <use xlink:href="#DejaVuSans-73" transform="translate(1351.828125 0)"/>
      <use xlink:href="#DejaVuSans-29" transform="translate(1403.927734 0)"/>
      <use xlink:href="#DejaVuSans-20" transform="translate(1442.941406 0)"/>
      <use xlink:href="#DejaVuSans-70" transform="translate(1474.728516 0)"/>
      <use xlink:href="#DejaVuSans-65" transform="translate(1538.205078 0)"/>
      <use xlink:href="#DejaVuSans-72" transform="translate(1599.728516 0)"/>
      <use xlink:href="#DejaVuSans-20" transform="translate(1640.841797 0)"/>
      <use xlink:href="#DejaVuSans-4e" transform="translate(1672.628906 0)"/>
      <use xlink:href="#DejaVuSans-65" transform="translate(1747.433594 0)"/>
      <use xlink:href="#DejaVuSans-75" transform="translate(1808.957031 0)"/>
      <use xlink:href="#DejaVuSans-72" transform="translate(1872.335938 0)"/>
      <use xlink:href="#DejaVuSans-6f" transform="translate(1911.199219 0)"/>
      <use xlink:href="#DejaVuSans-6e" transform="translate(1972.380859 0)"/>
     </g>
    </g>
   </g>
   <g id="line2d_15">
    <path d="M 138.436364 369.36 
L 150.859369 369.36 
L 163.282375 369.36 
L 175.70538 365.76 
L 188.128386 365.76 
L 200.551391 358.56 
L 212.974397 351.36 
L 225.397403 351.36 
L 237.820408 358.56 
L 250.243414 347.76 
L 262.666419 329.76 
L 275.089425 333.36 
L 287.51243 340.56 
L 299.935436 351.36 
L 312.358442 354.96 
L 324.781447 326.16 
L 337.204453 290.16 
L 349.627458 246.96 
L 362.050464 207.36 
L 374.473469 189.36 
L 386.896475 218.16 
L 399.319481 279.36 
L 411.742486 286.56 
L 424.165492 311.76 
L 436.588497 308.16 
L 449.011503 279.36 
L 461.434508 246.96 
L 473.857514 207.36 
L 486.280519 196.56 
L 498.703525 214.56 
L 511.126531 210.96 
L 523.549536 254.16 
L 535.972542 286.56 
L 548.395547 329.76 
L 560.818553 318.96 
L 573.241558 290.16 
L 585.664564 257.76 
L 598.08757 214.56 
L 610.510575 243.36 
L 622.933581 272.16 
L 635.356586 261.36 
L 647.779592 257.76 
L 660.202597 250.56 
L 672.625603 275.76 
L 685.048609 282.96 
L 697.471614 293.76 
L 709.89462 297.36 
L 722.317625 311.76 
L 734.740631 340.56 
L 747.163636 354.96 
" clip-path="url(#p0410332bde)" style="fill: none; stroke: #1f77b4; stroke-width: 1.5; stroke-linecap: square"/>
   </g>
   <g id="line2d_16">
    <path d="M 138.436364 369.36 
L 150.859369 369.36 
L 163.282375 369.36 
L 175.70538 365.76 
L 188.128386 358.56 
L 200.551391 351.36 
L 212.974397 358.56 
L 225.397403 358.56 
L 237.820408 351.36 
L 250.243414 347.76 
L 262.666419 358.56 
L 275.089425 354.96 
L 287.51243 347.76 
L 299.935436 326.16 
L 312.358442 297.36 
L 324.781447 264.96 
L 337.204453 246.96 
L 349.627458 232.56 
L 362.050464 225.36 
L 374.473469 189.36 
L 386.896475 171.36 
L 399.319481 218.16 
L 411.742486 286.56 
L 424.165492 293.76 
L 436.588497 286.56 
L 449.011503 250.56 
L 461.434508 261.36 
L 473.857514 297.36 
L 486.280519 326.16 
L 498.703525 351.36 
L 511.126531 358.56 
L 523.549536 354.96 
L 535.972542 340.56 
L 548.395547 333.36 
L 560.818553 304.56 
L 573.241558 261.36 
L 585.664564 210.96 
L 598.08757 182.16 
L 610.510575 178.56 
L 622.933581 210.96 
L 635.356586 264.96 
L 647.779592 279.36 
L 660.202597 311.76 
L 672.625603 329.76 
L 685.048609 318.96 
L 697.471614 268.56 
L 709.89462 272.16 
L 722.317625 308.16 
L 734.740631 340.56 
L 747.163636 358.56 
" clip-path="url(#p0410332bde)" style="fill: none; stroke: #ff7f0e; stroke-width: 1.5; stroke-linecap: square"/>
   </g>
   <g id="line2d_17">
    <path d="M 138.436364 369.36 
L 150.859369 369.36 
L 163.282375 369.36 
L 175.70538 369.36 
L 188.128386 369.36 
L 200.551391 362.16 
L 212.974397 351.36 
L 225.397403 344.16 
L 237.820408 351.36 
L 250.243414 347.76 
L 262.666419 344.16 
L 275.089425 340.56 
L 287.51243 340.56 
L 299.935436 340.56 
L 312.358442 336.96 
L 324.781447 322.56 
L 337.204453 318.96 
L 349.627458 304.56 
L 362.050464 308.16 
L 374.473469 315.36 
L 386.896475 315.36 
L 399.319481 322.56 
L 411.742486 293.76 
L 424.165492 264.96 
L 436.588497 221.76 
L 449.011503 192.96 
L 461.434508 185.76 
L 473.857514 189.36 
L 486.280519 221.76 
L 498.703525 300.96 
L 511.126531 358.56 
L 523.549536 362.16 
L 535.972542 354.96 
L 548.395547 318.96 
L 560.818553 282.96 
L 573.241558 232.56 
L 585.664564 200.16 
L 598.08757 200.16 
L 610.510575 290.16 
L 622.933581 308.16 
L 635.356586 308.16 
L 647.779592 308.16 
L 660.202597 304.56 
L 672.625603 308.16 
L 685.048609 304.56 
L 697.471614 318.96 
L 709.89462 329.76 
L 722.317625 333.36 
L 734.740631 344.16 
L 747.163636 354.96 
" clip-path="url(#p0410332bde)" style="fill: none; stroke: #2ca02c; stroke-width: 1.5; stroke-linecap: square"/>
   </g>
   <g id="line2d_18">
    <path d="M 138.436364 369.36 
L 150.859369 369.36 
L 163.282375 369.36 
L 175.70538 369.36 
L 188.128386 369.36 
L 200.551391 365.76 
L 212.974397 362.16 
L 225.397403 354.96 
L 237.820408 351.36 
L 250.243414 336.96 
L 262.666419 344.16 
L 275.089425 318.96 
L 287.51243 279.36 
L 299.935436 250.56 
L 312.358442 246.96 
L 324.781447 250.56 
L 337.204453 254.16 
L 349.627458 304.56 
L 362.050464 347.76 
L 374.473469 344.16 
L 386.896475 340.56 
L 399.319481 318.96 
L 411.742486 297.36 
L 424.165492 275.76 
L 436.588497 290.16 
L 449.011503 318.96 
L 461.434508 333.36 
L 473.857514 336.96 
L 486.280519 340.56 
L 498.703525 308.16 
L 511.126531 246.96 
L 523.549536 160.56 
L 535.972542 102.96 
L 548.395547 66.96 
L 560.818553 124.56 
L 573.241558 200.16 
L 585.664564 254.16 
L 598.08757 279.36 
L 610.510575 315.36 
L 622.933581 318.96 
L 635.356586 318.96 
L 647.779592 300.96 
L 660.202597 282.96 
L 672.625603 261.36 
L 685.048609 272.16 
L 697.471614 311.76 
L 709.89462 333.36 
L 722.317625 329.76 
L 734.740631 336.96 
L 747.163636 351.36 
" clip-path="url(#p0410332bde)" style="fill: none; stroke: #d62728; stroke-width: 1.5; stroke-linecap: square"/>
   </g>
   <g id="line2d_19">
    <path d="M 138.436364 369.36 
L 150.859369 369.36 
L 163.282375 365.76 
L 175.70538 365.76 
L 188.128386 365.76 
L 200.551391 358.56 
L 212.974397 354.96 
L 225.397403 344.16 
L 237.820408 340.56 
L 250.243414 336.96 
L 262.666419 329.76 
L 275.089425 329.76 
L 287.51243 315.36 
L 299.935436 293.76 
L 312.358442 264.96 
L 324.781447 221.76 
L 337.204453 221.76 
L 349.627458 254.16 
L 362.050464 261.36 
L 374.473469 268.56 
L 386.896475 300.96 
L 399.319481 315.36 
L 411.742486 333.36 
L 424.165492 308.16 
L 436.588497 254.16 
L 449.011503 246.96 
L 461.434508 272.16 
L 473.857514 290.16 
L 486.280519 329.76 
L 498.703525 336.96 
L 511.126531 322.56 
L 523.549536 293.76 
L 535.972542 254.16 
L 548.395547 182.16 
L 560.818553 174.96 
L 573.241558 221.76 
L 585.664564 272.16 
L 598.08757 250.56 
L 610.510575 236.16 
L 622.933581 264.96 
L 635.356586 308.16 
L 647.779592 300.96 
L 660.202597 279.36 
L 672.625603 246.96 
L 685.048609 254.16 
L 697.471614 261.36 
L 709.89462 264.96 
L 722.317625 243.36 
L 734.740631 257.76 
L 747.163636 318.96 
" clip-path="url(#p0410332bde)" style="fill: none; stroke: #9467bd; stroke-width: 1.5; stroke-linecap: square"/>
   </g>
   <g id="line2d_20">
    <path d="M 138.436364 369.36 
L 150.859369 369.36 
L 163.282375 369.36 
L 175.70538 369.36 
L 188.128386 369.36 
L 200.551391 362.16 
L 212.974397 358.56 
L 225.397403 351.36 
L 237.820408 347.76 
L 250.243414 347.76 
L 262.666419 344.16 
L 275.089425 336.96 
L 287.51243 340.56 
L 299.935436 347.76 
L 312.358442 351.36 
L 324.781447 354.96 
L 337.204453 347.76 
L 349.627458 318.96 
L 362.050464 290.16 
L 374.473469 293.76 
L 386.896475 311.76 
L 399.319481 272.16 
L 411.742486 178.56 
L 424.165492 81.36 
L 436.588497 81.36 
L 449.011503 164.16 
L 461.434508 239.76 
L 473.857514 290.16 
L 486.280519 340.56 
L 498.703525 351.36 
L 511.126531 347.76 
L 523.549536 329.76 
L 535.972542 311.76 
L 548.395547 261.36 
L 560.818553 210.96 
L 573.241558 218.16 
L 585.664564 282.96 
L 598.08757 318.96 
L 610.510575 315.36 
L 622.933581 250.56 
L 635.356586 142.56 
L 647.779592 95.76 
L 660.202597 124.56 
L 672.625603 214.56 
L 685.048609 300.96 
L 697.471614 336.96 
L 709.89462 354.96 
L 722.317625 347.76 
L 734.740631 347.76 
L 747.163636 354.96 
" clip-path="url(#p0410332bde)" style="fill: none; stroke: #8c564b; stroke-width: 1.5; stroke-linecap: square"/>
   </g>
   <g id="line2d_21">
    <path d="M 138.436364 369.36 
L 150.859369 369.36 
L 163.282375 369.36 
L 175.70538 362.16 
L 188.128386 362.16 
L 200.551391 362.16 
L 212.974397 365.76 
L 225.397403 344.16 
L 237.820408 304.56 
L 250.243414 178.56 
L 262.666419 81.36 
L 275.089425 110.16 
L 287.51243 232.56 
L 299.935436 311.76 
L 312.358442 329.76 
L 324.781447 318.96 
L 337.204453 333.36 
L 349.627458 329.76 
L 362.050464 282.96 
L 374.473469 246.96 
L 386.896475 232.56 
L 399.319481 239.76 
L 411.742486 293.76 
L 424.165492 329.76 
L 436.588497 311.76 
L 449.011503 300.96 
L 461.434508 315.36 
L 473.857514 311.76 
L 486.280519 272.16 
L 498.703525 221.76 
L 511.126531 207.36 
L 523.549536 236.16 
L 535.972542 293.76 
L 548.395547 311.76 
L 560.818553 336.96 
L 573.241558 311.76 
L 585.664564 286.56 
L 598.08757 300.96 
L 610.510575 318.96 
L 622.933581 311.76 
L 635.356586 304.56 
L 647.779592 300.96 
L 660.202597 282.96 
L 672.625603 261.36 
L 685.048609 239.76 
L 697.471614 225.36 
L 709.89462 167.76 
L 722.317625 95.76 
L 734.740631 117.36 
L 747.163636 228.96 
" clip-path="url(#p0410332bde)" style="fill: none; stroke: #e377c2; stroke-width: 1.5; stroke-linecap: square"/>
   </g>
   <g id="line2d_22">
    <path d="M 138.436364 369.36 
L 150.859369 369.36 
L 163.282375 369.36 
L 175.70538 369.36 
L 188.128386 369.36 
L 200.551391 369.36 
L 212.974397 369.36 
L 225.397403 369.36 
L 237.820408 365.76 
L 250.243414 351.36 
L 262.666419 329.76 
L 275.089425 315.36 
L 287.51243 326.16 
L 299.935436 344.16 
L 312.358442 336.96 
L 324.781447 300.96 
L 337.204453 275.76 
L 349.627458 264.96 
L 362.050464 264.96 
L 374.473469 243.36 
L 386.896475 221.76 
L 399.319481 174.96 
L 411.742486 160.56 
L 424.165492 218.16 
L 436.588497 275.76 
L 449.011503 315.36 
L 461.434508 336.96 
L 473.857514 326.16 
L 486.280519 300.96 
L 498.703525 304.56 
L 511.126531 329.76 
L 523.549536 336.96 
L 535.972542 322.56 
L 548.395547 290.16 
L 560.818553 297.36 
L 573.241558 286.56 
L 585.664564 250.56 
L 598.08757 192.96 
L 610.510575 160.56 
L 622.933581 232.56 
L 635.356586 300.96 
L 647.779592 322.56 
L 660.202597 315.36 
L 672.625603 311.76 
L 685.048609 308.16 
L 697.471614 311.76 
L 709.89462 329.76 
L 722.317625 340.56 
L 734.740631 351.36 
L 747.163636 354.96 
" clip-path="url(#p0410332bde)" style="fill: none; stroke: #7f7f7f; stroke-width: 1.5; stroke-linecap: square"/>
   </g>
   <g id="patch_3">
    <path d="M 108 384.48 
L 108 51.84 
" style="fill: none; stroke: #000000; stroke-width: 0.8; stroke-linejoin: miter; stroke-linecap: square"/>
   </g>
   <g id="patch_4">
    <path d="M 777.6 384.48 
L 777.6 51.84 
" style="fill: none; stroke: #000000; stroke-width: 0.8; stroke-linejoin: miter; stroke-linecap: square"/>
   </g>
   <g id="patch_5">
    <path d="M 108 384.48 
L 777.6 384.48 
" style="fill: none; stroke: #000000; stroke-width: 0.8; stroke-linejoin: miter; stroke-linecap: square"/>
   </g>
   <g id="patch_6">
    <path d="M 108 51.84 
L 777.6 51.84 
" style="fill: none; stroke: #000000; stroke-width: 0.8; stroke-linejoin: miter; stroke-linecap: square"/>
   </g>
   <g id="text_17">
    <!-- Mean Firing Rate Over Time -->
    <g transform="translate(359.528437 45.84) scale(0.12 -0.12)">
     <defs>
      <path id="DejaVuSans-4f" d="M 2522 4238 
Q 1834 4238 1429 3725 
Q 1025 3213 1025 2328 
Q 1025 1447 1429 934 
Q 1834 422 2522 422 
Q 3209 422 3611 934 
Q 4013 1447 4013 2328 
Q 4013 3213 3611 3725 
Q 3209 4238 2522 4238 
z
M 2522 4750 
Q 3503 4750 4090 4092 
Q 4678 3434 4678 2328 
Q 4678 1225 4090 567 
Q 3503 -91 2522 -91 
Q 1538 -91 948 565 
Q 359 1222 359 2328 
Q 359 3434 948 4092 
Q 1538 4750 2522 4750 
z
" transform="scale(0.015625)"/>
      <path id="DejaVuSans-76" d="M 191 3500 
L 800 3500 
L 1894 563 
L 2988 3500 
L 3597 3500 
L 2284 0 
L 1503 0 
L 191 3500 
z
" transform="scale(0.015625)"/>
     </defs>
     <use xlink:href="#DejaVuSans-4d"/>
     <use xlink:href="#DejaVuSans-65" transform="translate(86.279297 0)"/>
     <use xlink:href="#DejaVuSans-61" transform="translate(147.802734 0)"/>
     <use xlink:href="#DejaVuSans-6e" transform="translate(209.082031 0)"/>
     <use xlink:href="#DejaVuSans-20" transform="translate(272.460938 0)"/>
     <use xlink:href="#DejaVuSans-46" transform="translate(304.248047 0)"/>
     <use xlink:href="#DejaVuSans-69" transform="translate(354.517578 0)"/>
     <use xlink:href="#DejaVuSans-72" transform="translate(382.300781 0)"/>
     <use xlink:href="#DejaVuSans-69" transform="translate(423.414062 0)"/>
     <use xlink:href="#DejaVuSans-6e" transform="translate(451.197266 0)"/>
     <use xlink:href="#DejaVuSans-67" transform="translate(514.576172 0)"/>
     <use xlink:href="#DejaVuSans-20" transform="translate(578.052734 0)"/>
     <use xlink:href="#DejaVuSans-52" transform="translate(609.839844 0)"/>
     <use xlink:href="#DejaVuSans-61" transform="translate(677.072266 0)"/>
     <use xlink:href="#DejaVuSans-74" transform="translate(738.351562 0)"/>
     <use xlink:href="#DejaVuSans-65" transform="translate(777.560547 0)"/>
     <use xlink:href="#DejaVuSans-20" transform="translate(839.083984 0)"/>
     <use xlink:href="#DejaVuSans-4f" transform="translate(870.871094 0)"/>
     <use xlink:href="#DejaVuSans-76" transform="translate(949.582031 0)"/>
     <use xlink:href="#DejaVuSans-65" transform="translate(1008.761719 0)"/>
     <use xlink:href="#DejaVuSans-72" transform="translate(1070.285156 0)"/>
     <use xlink:href="#DejaVuSans-20" transform="translate(1111.398438 0)"/>
     <use xlink:href="#DejaVuSans-54" transform="translate(1143.185547 0)"/>
     <use xlink:href="#DejaVuSans-69" transform="translate(1201.144531 0)"/>
     <use xlink:href="#DejaVuSans-6d" transform="translate(1228.927734 0)"/>
     <use xlink:href="#DejaVuSans-65" transform="translate(1326.339844 0)"/>
    </g>
   </g>
   <g id="legend_1">
    <g id="patch_7">
     <path d="M 115 177.265 
L 192.904687 177.265 
Q 194.904687 177.265 194.904687 175.265 
L 194.904687 58.84 
Q 194.904687 56.84 192.904687 56.84 
L 115 56.84 
Q 113 56.84 113 58.84 
L 113 175.265 
Q 113 177.265 115 177.265 
z
" style="fill: #ffffff; opacity: 0.8; stroke: #cccccc; stroke-linejoin: miter"/>
    </g>
    <g id="line2d_23">
     <path d="M 117 64.938437 
L 127 64.938437 
L 137 64.938437 
" style="fill: none; stroke: #1f77b4; stroke-width: 1.5; stroke-linecap: square"/>
    </g>
    <g id="text_18">
     <!-- Module 1 -->
     <g transform="translate(145 68.438437) scale(0.1 -0.1)">
      <defs>
       <path id="DejaVuSans-64" d="M 2906 2969 
L 2906 4863 
L 3481 4863 
L 3481 0 
L 2906 0 
L 2906 525 
Q 2725 213 2448 61 
Q 2172 -91 1784 -91 
Q 1150 -91 751 415 
Q 353 922 353 1747 
Q 353 2572 751 3078 
Q 1150 3584 1784 3584 
Q 2172 3584 2448 3432 
Q 2725 3281 2906 2969 
z
M 947 1747 
Q 947 1113 1208 752 
Q 1469 391 1925 391 
Q 2381 391 2643 752 
Q 2906 1113 2906 1747 
Q 2906 2381 2643 2742 
Q 2381 3103 1925 3103 
Q 1469 3103 1208 2742 
Q 947 2381 947 1747 
z
" transform="scale(0.015625)"/>
       <path id="DejaVuSans-6c" d="M 603 4863 
L 1178 4863 
L 1178 0 
L 603 0 
L 603 4863 
z
" transform="scale(0.015625)"/>
      </defs>
      <use xlink:href="#DejaVuSans-4d"/>
      <use xlink:href="#DejaVuSans-6f" transform="translate(86.279297 0)"/>
      <use xlink:href="#DejaVuSans-64" transform="translate(147.460938 0)"/>
      <use xlink:href="#DejaVuSans-75" transform="translate(210.9375 0)"/>
      <use xlink:href="#DejaVuSans-6c" transform="translate(274.316406 0)"/>
      <use xlink:href="#DejaVuSans-65" transform="translate(302.099609 0)"/>
      <use xlink:href="#DejaVuSans-20" transform="translate(363.623047 0)"/>
      <use xlink:href="#DejaVuSans-31" transform="translate(395.410156 0)"/>
     </g>
    </g>
    <g id="line2d_24">
     <path d="M 117 79.616562 
L 127 79.616562 
L 137 79.616562 
" style="fill: none; stroke: #ff7f0e; stroke-width: 1.5; stroke-linecap: square"/>
    </g>
    <g id="text_19">
     <!-- Module 2 -->
     <g transform="translate(145 83.116562) scale(0.1 -0.1)">
      <use xlink:href="#DejaVuSans-4d"/>
      <use xlink:href="#DejaVuSans-6f" transform="translate(86.279297 0)"/>
      <use xlink:href="#DejaVuSans-64" transform="translate(147.460938 0)"/>
      <use xlink:href="#DejaVuSans-75" transform="translate(210.9375 0)"/>
      <use xlink:href="#DejaVuSans-6c" transform="translate(274.316406 0)"/>
      <use xlink:href="#DejaVuSans-65" transform="translate(302.099609 0)"/>
      <use xlink:href="#DejaVuSans-20" transform="translate(363.623047 0)"/>
      <use xlink:href="#DejaVuSans-32" transform="translate(395.410156 0)"/>
     </g>
    </g>
    <g id="line2d_25">
     <path d="M 117 94.294687 
L 127 94.294687 
L 137 94.294687 
" style="fill: none; stroke: #2ca02c; stroke-width: 1.5; stroke-linecap: square"/>
    </g>
    <g id="text_20">
     <!-- Module 3 -->
     <g transform="translate(145 97.794687) scale(0.1 -0.1)">
      <defs>
       <path id="DejaVuSans-33" d="M 2597 2516 
Q 3050 2419 3304 2112 
Q 3559 1806 3559 1356 
Q 3559 666 3084 287 
Q 2609 -91 1734 -91 
Q 1441 -91 1130 -33 
Q 819 25 488 141 
L 488 750 
Q 750 597 1062 519 
Q 1375 441 1716 441 
Q 2309 441 2620 675 
Q 2931 909 2931 1356 
Q 2931 1769 2642 2001 
Q 2353 2234 1838 2234 
L 1294 2234 
L 1294 2753 
L 1863 2753 
Q 2328 2753 2575 2939 
Q 2822 3125 2822 3475 
Q 2822 3834 2567 4026 
Q 2313 4219 1838 4219 
Q 1578 4219 1281 4162 
Q 984 4106 628 3988 
L 628 4550 
Q 988 4650 1302 4700 
Q 1616 4750 1894 4750 
Q 2613 4750 3031 4423 
Q 3450 4097 3450 3541 
Q 3450 3153 3228 2886 
Q 3006 2619 2597 2516 
z
" transform="scale(0.015625)"/>
      </defs>
      <use xlink:href="#DejaVuSans-4d"/>
      <use xlink:href="#DejaVuSans-6f" transform="translate(86.279297 0)"/>
      <use xlink:href="#DejaVuSans-64" transform="translate(147.460938 0)"/>
      <use xlink:href="#DejaVuSans-75" transform="translate(210.9375 0)"/>
      <use xlink:href="#DejaVuSans-6c" transform="translate(274.316406 0)"/>
      <use xlink:href="#DejaVuSans-65" transform="translate(302.099609 0)"/>
      <use xlink:href="#DejaVuSans-20" transform="translate(363.623047 0)"/>
      <use xlink:href="#DejaVuSans-33" transform="translate(395.410156 0)"/>
     </g>
    </g>
    <g id="line2d_26">
     <path d="M 117 108.972812 
L 127 108.972812 
L 137 108.972812 
" style="fill: none; stroke: #d62728; stroke-width: 1.5; stroke-linecap: square"/>
    </g>
    <g id="text_21">
     <!-- Module 4 -->
     <g transform="translate(145 112.472812) scale(0.1 -0.1)">
      <use xlink:href="#DejaVuSans-4d"/>
      <use xlink:href="#DejaVuSans-6f" transform="translate(86.279297 0)"/>
      <use xlink:href="#DejaVuSans-64" transform="translate(147.460938 0)"/>
      <use xlink:href="#DejaVuSans-75" transform="translate(210.9375 0)"/>
      <use xlink:href="#DejaVuSans-6c" transform="translate(274.316406 0)"/>
      <use xlink:href="#DejaVuSans-65" transform="translate(302.099609 0)"/>
      <use xlink:href="#DejaVuSans-20" transform="translate(363.623047 0)"/>
      <use xlink:href="#DejaVuSans-34" transform="translate(395.410156 0)"/>
     </g>
    </g>
    <g id="line2d_27">
     <path d="M 117 123.650937 
L 127 123.650937 
L 137 123.650937 
" style="fill: none; stroke: #9467bd; stroke-width: 1.5; stroke-linecap: square"/>
    </g>
    <g id="text_22">
     <!-- Module 5 -->
     <g transform="translate(145 127.150937) scale(0.1 -0.1)">
      <use xlink:href="#DejaVuSans-4d"/>
      <use xlink:href="#DejaVuSans-6f" transform="translate(86.279297 0)"/>
      <use xlink:href="#DejaVuSans-64" transform="translate(147.460938 0)"/>
      <use xlink:href="#DejaVuSans-75" transform="translate(210.9375 0)"/>
      <use xlink:href="#DejaVuSans-6c" transform="translate(274.316406 0)"/>
      <use xlink:href="#DejaVuSans-65" transform="translate(302.099609 0)"/>
      <use xlink:href="#DejaVuSans-20" transform="translate(363.623047 0)"/>
      <use xlink:href="#DejaVuSans-35" transform="translate(395.410156 0)"/>
     </g>
    </g>
    <g id="line2d_28">
     <path d="M 117 138.329062 
L 127 138.329062 
L 137 138.329062 
" style="fill: none; stroke: #8c564b; stroke-width: 1.5; stroke-linecap: square"/>
    </g>
    <g id="text_23">
     <!-- Module 6 -->
     <g transform="translate(145 141.829062) scale(0.1 -0.1)">
      <use xlink:href="#DejaVuSans-4d"/>
      <use xlink:href="#DejaVuSans-6f" transform="translate(86.279297 0)"/>
      <use xlink:href="#DejaVuSans-64" transform="translate(147.460938 0)"/>
      <use xlink:href="#DejaVuSans-75" transform="translate(210.9375 0)"/>
      <use xlink:href="#DejaVuSans-6c" transform="translate(274.316406 0)"/>
      <use xlink:href="#DejaVuSans-65" transform="translate(302.099609 0)"/>
      <use xlink:href="#DejaVuSans-20" transform="translate(363.623047 0)"/>
      <use xlink:href="#DejaVuSans-36" transform="translate(395.410156 0)"/>
     </g>
    </g>
    <g id="line2d_29">
     <path d="M 117 153.007187 
L 127 153.007187 
L 137 153.007187 
" style="fill: none; stroke: #e377c2; stroke-width: 1.5; stroke-linecap: square"/>
    </g>
    <g id="text_24">
     <!-- Module 7 -->
     <g transform="translate(145 156.507187) scale(0.1 -0.1)">
      <use xlink:href="#DejaVuSans-4d"/>
      <use xlink:href="#DejaVuSans-6f" transform="translate(86.279297 0)"/>
      <use xlink:href="#DejaVuSans-64" transform="translate(147.460938 0)"/>
      <use xlink:href="#DejaVuSans-75" transform="translate(210.9375 0)"/>
      <use xlink:href="#DejaVuSans-6c" transform="translate(274.316406 0)"/>
      <use xlink:href="#DejaVuSans-65" transform="translate(302.099609 0)"/>
      <use xlink:href="#DejaVuSans-20" transform="translate(363.623047 0)"/>
      <use xlink:href="#DejaVuSans-37" transform="translate(395.410156 0)"/>
     </g>
    </g>
    <g id="line2d_30">
     <path d="M 117 167.685312 
L 127 167.685312 
L 137 167.685312 
" style="fill: none; stroke: #7f7f7f; stroke-width: 1.5; stroke-linecap: square"/>
    </g>
    <g id="text_25">
     <!-- Module 8 -->
     <g transform="translate(145 171.185312) scale(0.1 -0.1)">
      <use xlink:href="#DejaVuSans-4d"/>
      <use xlink:href="#DejaVuSans-6f" transform="translate(86.279297 0)"/>
      <use xlink:href="#DejaVuSans-64" transform="translate(147.460938 0)"/>
      <use xlink:href="#DejaVuSans-75" transform="translate(210.9375 0)"/>
      <use xlink:href="#DejaVuSans-6c" transform="translate(274.316406 0)"/>
      <use xlink:href="#DejaVuSans-65" transform="translate(302.099609 0)"/>
      <use xlink:href="#DejaVuSans-20" transform="translate(363.623047 0)"/>
      <use xlink:href="#DejaVuSans-38" transform="translate(395.410156 0)"/>
     </g>
    </g>
   </g>
  </g>
 </g>
 <defs>
  <clipPath id="p0410332bde">
   <rect x="108" y="51.84" width="669.6" height="332.64"/>
  </clipPath>
 </defs>
</svg>
